<svg xmlns="http://www.w3.org/2000/svg" version="1.1" id="svg10" xml:space="preserve" width="275" height="79.400002" viewBox="0 0 274.99999 79.400002"><defs id="defs14"><clipPath clipPathUnits="userSpaceOnUse" id="clipPath26"><path d="M 0,651.968 H 898.583 V 0 H 0 Z" id="path24"></path></clipPath></defs><g id="g18" transform="matrix(1.3333333,0,0,-1.3333333,0,869.29067)"><g id="g20" transform="matrix(1.0446981,0,0,1.0446981,-335.65207,296.54346)"><g id="g22" clip-path="url(#clipPath26)"><g id="g28" transform="translate(406.4785,317.3535)"><path d="m 5.2499186,0 h 3.374 v -2.557 h -3.374 v -8.244 H 2.0129187 V 5.985 H 5.2499186 Z M -8.4070811,-7.155 c 0.843,0 1.577,0.218 2.203,0.708 0.599,0.462 0.898,1.06 0.898,1.767 0,0.681 -0.299,1.252 -0.898,1.742 -0.626,0.462 -1.36,0.708 -2.203,0.708 -0.871,0 -1.5779999,-0.246 -2.1769999,-0.708 -0.626,-0.49 -0.925,-1.061 -0.925,-1.742 0,-0.707 0.299,-1.305 0.925,-1.767 0.599,-0.49 1.3059999,-0.708 2.1769999,-0.708 M -12.162081,6.394 h 7.5089996 V 4.027 h -7.5089996 z m 4.8699999,-21.221 H 5.3589186 V -17.33 H -8.0810811 c -2.9109999,0 -4.3529999,1.333 -4.3529999,4.054 v 2.611 h 3.2649999 v -2.231 c 0,-1.305 0.626,-1.931 1.877,-1.931 m -1.115,5.387 c -1.8499999,0 -3.3739999,0.462 -4.5169999,1.415 -1.17,0.924 -1.741,2.04 -1.741,3.345 0,1.28 0.571,2.395 1.741,3.347 1.143,0.925 2.667,1.388 4.5169999,1.388 1.849,0 3.346,-0.463 4.5159997,-1.388 1.142,-0.952 1.741,-2.067 1.741,-3.347 0,-1.305 -0.599,-2.421 -1.741,-3.345 C -5.0610811,-8.978 -6.5580811,-9.44 -8.4070811,-9.44 M -1.0890814,0.844 H -15.726081 v 2.34 h 14.6369996 z" style="fill:#231815;fill-opacity:1;fill-rule:nonzero;stroke:none" id="path30"></path></g><g id="g32" transform="translate(419.9395,310.1982)"><path d="m 5.2499186,0 c 0.843,0 1.578,0.218 2.204,0.708 0.598,0.462 0.898,1.061 0.898,1.768 0,0.68 -0.3,1.252 -0.898,1.741 -0.626,0.463 -1.361,0.708 -2.204,0.708 -0.871,0 -1.578,-0.245 -2.1769999,-0.708 -0.625,-0.489 -0.925,-1.061 -0.925,-1.741 0,-0.707 0.3,-1.306 0.925,-1.768 C 3.6719186,0.218 4.3789186,0 5.2499186,0 M 1.4959187,13.549 H 9.0049186 V 11.182 H 1.4959187 Z M 12.513919,7.999 H -2.1230814 v 2.34 H 12.513919 Z M 3.6449186,-2.149 c -1.1699999,0.19 -2.1489999,0.626 -2.96599982,1.306 -1.14200004,0.925 -1.68600008,2.013 -1.68600008,3.319 0,1.279 0.57100004,2.394 1.74100008,3.346 C 1.8759187,6.747 3.3999187,7.21 5.2499186,7.21 c 1.85,0 3.346,-0.463 4.516,-1.388 1.1430004,-0.952 1.7410004,-2.067 1.7410004,-3.346 0,-1.306 -0.571,-2.394 -1.686,-3.319 C 9.0039186,-1.496 8.0519186,-1.932 6.9099186,-2.149 v -2.476 h 3.6180004 c 3.265,0 4.897,1.252 4.897,3.782 v 13.984 h 3.238 V 5.306 h 3.373 V 2.721 h -3.373 v -12.95 h -3.238 v 4.38 c -0.98,-0.871 -2.448,-1.306 -4.353,-1.306 H -2.6400814 v 2.53 h 6.285 z" style="fill:#231815;fill-opacity:1;fill-rule:nonzero;stroke:none" id="path34"></path></g><g id="g38" transform="translate(487.9424,323.3389)"></g><path d="m 462.11617,323.3392 h 3.26499 v -23.37 h -3.26499 z m -8.95097,-3.809 c 0,-3.971 0.62499,-6.883 1.93199,-8.733 1.088,-1.578 2.47599,-2.693 4.13499,-3.292 v -2.584 c -2.476,0.489 -4.59799,1.795 -6.33898,3.863 -0.517,0.599 -0.952,1.278 -1.333,2.068 -0.381,-0.79 -0.844,-1.469 -1.33299,-2.068 -1.769,-2.068 -3.89099,-3.374 -6.33898,-3.863 v 2.584 c 1.65899,0.599 3.04699,1.714 4.13498,3.292 1.279,1.85 1.931,4.762 1.931,8.733 v 3.455 h 3.21099 z" style="fill:#231815;fill-opacity:1;fill-rule:nonzero;stroke:none;stroke-width:0.999998" id="path42"></path><g id="g44" transform="translate(530.7793,321.7344)"><path d="m -47.775067,1.9961487e-4 c 0,-3.42900001487 0.924997,-5.98500001487 2.828991,-7.72700001487 1.740994,-1.632 3.727987,-2.5019996 5.90398,-2.6389996 v -2.503 c -2.99299,0.082 -5.630981,1.061 -7.970973,2.9109996 -0.979997,0.762 -1.795994,1.714 -2.393992,2.803 -0.652998,-1.089 -1.441996,-2.041 -2.421992,-2.803 C -54.169046,-11.8078 -56.835037,-12.7868 -59.800027,-12.8688 v 2.503 c 2.175993,0.137 4.134986,1.0069996 5.903981,2.6389996 1.876993,1.742 2.82899,4.298 2.82899,7.72700001487 V 1.2781996 h 3.291989 z M -37.491101,-19.3438 h -23.859921 v 2.639 h 23.859921 z" style="fill:#231815;fill-opacity:1;fill-rule:nonzero;stroke:none;stroke-width:0.999998" id="path46"></path></g><path d="m 515.50999,323.3392 h 3.18399 v -14.011 h -3.18399 z m -5.05998,0 h 3.12899 v -14.011 h -3.12899 v 6.094 h -2.93899 v 2.557 h 2.93899 z m 5.00498,-17.656 h -11.53496 v -1.906 c 0,-0.87 0.436,-1.278 1.33299,-1.278 h 10.20197 z m 3.23899,0.734 v -6.394 h -14.11995 c -2.613,0 -3.89099,1.17 -3.89099,3.51 v 4.625 h 16.21494 c 1.197,0 1.796,-0.598 1.796,-1.741 m -10.52997,6.04 v -2.477 h -7.09997 c -2.80299,0 -4.19099,1.28 -4.19099,3.864 v 9.304 h 10.12197 v -2.475 h -6.99298 v -2.748 h 5.87698 v -2.448 h -5.87698 v -1.252 c 0,-1.197 0.572,-1.768 1.714,-1.768 z" style="fill:#231815;fill-opacity:1;fill-rule:nonzero;stroke:none;stroke-width:0.999998" id="path48"></path><g id="g50" transform="translate(378.7246,308.7559)"><path d="m 5.3999186,0 c -0.939,9.168 -11.3849997,16.683 -23.3299996,16.783 -11.942,0.099 -20.871,-7.259 -19.931,-16.429 0.939,-9.175 11.384,-16.689 23.332,-16.785 C -2.5860814,-16.532 6.3339186,-9.171 5.3999186,0 M -34.119081,2.294 c -0.815,7.396 6.94,13.332 17.32,13.247 C -6.4220811,15.46 2.6539187,9.401 3.4669187,2.009 c 0.8169999,-7.397 -6.9350001,-13.33 -17.3189997,-13.245 -10.375,0.079 -19.45,6.132 -20.267,13.53" style="fill:#f7bb82;fill-opacity:1;fill-rule:nonzero;stroke:none" id="path52"></path></g><g id="g54" transform="translate(338.894,312.3164)"><path d="m 5.3999186,0 c -6.837,-7.147 -6.951,-18.135 -0.254,-24.551 6.6990004,-6.417 17.6770004,-5.817 24.5140004,1.322 6.844,7.143 6.95,18.132 0.254,24.554 C 23.215919,7.738 12.239919,7.144 5.3999186,0 M 27.191919,-20.181 c -5.88,-6.146 -15.322,-6.656 -21.0810004,-1.133 -5.77299986,5.511 -5.67499985,14.97 0.214,21.12 5.8840004,6.143 15.3310004,6.647 21.0890004,1.134 5.766,-5.516 5.669,-14.974 -0.222,-21.121" style="fill:#f4a051;fill-opacity:1;fill-rule:nonzero;stroke:none" id="path56"></path></g><g id="g58" transform="translate(328.1543,331.3794)"><path d="m 5.2499186,0 c -12.6999997,-10.049 -15.9299996,-24.611 -7.223,-32.524 8.707,-7.914 26.0590004,-6.183 38.7600004,3.868 12.692,10.052 15.922,24.616 7.22,32.528 -8.715,7.916 -26.064,6.182 -38.7570004,-3.872 M 16.607919,3.941 c 12.236,4.588 24.336,-0.053 27.03,-10.36 2.693,-10.309 -5.049,-22.388 -17.284,-26.968 -12.236,-4.591 -24.3330003,0.054 -27.02900026,10.361 C -3.3650814,-12.72 4.3759186,-0.643 16.607919,3.941" style="fill:#ed7100;fill-opacity:1;fill-rule:nonzero;stroke:none" id="path60"></path></g></g></g></g></svg>