<?xml version="1.0" encoding="UTF-8"?>
<svg width="24px" height="24px" viewBox="0 0 24 24" version="1.1" xmlns="http://www.w3.org/2000/svg" xmlns:xlink="http://www.w3.org/1999/xlink">
    <!-- Generator: Sketch 55.2 (78181) - https://sketchapp.com -->
    <title>ico_new</title>
    <desc>Created with Sketch.</desc>
    <g id="ico_new">
        <circle id="circle" stroke="#DBDBDB" stroke-width="2" fill="#FFFFFF" cx="12" cy="12" r="11"></circle>
        <path d="M7,15.9325843 C7,16.5224719 7.54662379,17 8.22186495,17 C8.89710611,17 9.4437299,16.5224719 9.4437299,15.9325843 L9.4437299,10.6657303 L14.3954984,16.3398876 C14.733119,16.7191011 15.0868167,16.9719101 15.681672,16.9719101 L15.7620579,16.9719101 C16.4533762,16.9719101 17,16.494382 17,15.8904494 L17,8.06741573 C17,7.47752809 16.4533762,7 15.778135,7 C15.1028939,7 14.5562701,7.47752809 14.5562701,8.06741573 L14.5562701,13.1376404 L9.78135048,7.66011236 C9.4437299,7.28089888 9.09003215,7.02808989 8.49517685,7.02808989 L8.23794212,7.02808989 C7.54662379,7.02808989 7,7.50561798 7,8.10955056 L7,15.9325843 Z" id="N" fill="#ED3E49"></path>
    </g>
</svg>